# Blender 5.0.1
# www.blender.org
o Cube
v -0.430000 1.200000 1.300000
v -0.430000 0.800000 -1.700000
v -0.430000 0.600000 1.300000
v -0.430000 0.600000 -2.100000
v -0.430000 1.147207 -0.115000
v -0.430000 1.200000 0.600000
v -0.430000 0.994000 -1.100000
v -0.430000 0.654000 -2.100000
v 0.000000 0.600000 1.300000
v -0.310000 1.200000 1.300000
v -0.310000 1.200000 0.600000
v -0.310000 1.147207 -0.115000
v -0.310000 0.654000 -2.100000
v -0.310000 0.800000 -1.700000
v -0.310000 0.994000 -1.100000
v -0.310000 0.600000 -2.100000
v -0.310000 0.600000 1.300000
v 0.000000 0.600000 -2.100000
v 0.000000 0.654000 -2.100000
v 0.000000 0.800000 -1.700000
v 0.000000 1.200000 1.300000
v 0.000000 1.200000 0.600000
v 0.000000 1.147203 -0.115003
v -2.030000 0.901975 -0.328331
v -2.030000 0.890430 -0.598331
v -2.030000 0.884658 -0.328331
v -2.030000 0.884658 -0.634331
v -2.030000 0.900452 -0.455681
v -2.030000 0.901975 -0.391331
v -2.030000 0.896030 -0.544331
v -2.030000 0.886216 -0.634331
v -1.302000 0.967451 -0.797161
v -1.302000 1.077661 -0.300671
v -1.302000 0.827897 -1.099590
v -1.302000 0.722871 -1.301211
v -1.302000 0.684026 -1.301211
v -1.302000 1.115637 0.412559
v -1.302000 0.684026 0.412559
v -1.302000 1.115637 0.059724
v -0.310000 0.600000 0.612093
v 0.000000 0.600000 0.612093
v -0.430000 0.600000 0.612093
v -2.030000 0.884658 -0.390243
v -1.302000 0.684026 0.065820
v 0.000000 0.600000 -0.480374
v -0.310000 0.600000 -0.480374
v -0.430000 0.600000 -0.480374
v -2.030000 0.884658 -0.488565
v -1.302000 0.684026 -0.484838
v 0.000000 0.600000 -1.290187
v -0.310000 0.600000 -1.290187
v -0.430000 0.600000 -1.290187
v -2.030000 0.884658 -0.561448
v -1.302000 0.684026 -0.893024
v -0.310000 0.600000 0.065860
v -0.430000 0.600000 0.065860
v -2.030000 0.884658 -0.439404
v -1.302000 0.684026 -0.209509
v 0.000000 0.600000 0.065860
v -0.298633 1.023216 1.700000
v -0.298633 0.776784 1.700000
v -0.264619 1.076023 1.700000
v -0.156748 1.023216 1.700000
v -0.264619 0.723977 1.700000
v -0.156748 0.776784 1.700000
v -0.298633 0.744765 1.500000
v -0.298633 1.055235 1.500000
v -0.156748 0.744765 1.500000
v -0.264619 0.678236 1.500000
v -0.264619 1.121764 1.500000
v -0.156748 1.055235 1.500000
v -0.298633 0.814671 1.600000
v -0.156748 0.814671 1.600000
v -0.264619 1.021898 1.600000
v -0.298633 0.985329 1.600000
v -0.264619 0.778102 1.600000
v -0.156748 0.985329 1.600000
v -0.298633 1.029257 1.730000
v -0.298633 0.770743 1.730000
v -0.264619 1.084653 1.730000
v -0.156748 1.029257 1.730000
v -0.264619 0.715347 1.730000
v -0.156748 0.770743 1.730000
v -0.054541 1.200000 1.300000
v -0.054541 0.800000 -1.700000
v -0.054541 0.600000 -2.100000
v -0.054541 0.600000 1.300000
v -0.054541 0.654000 -2.100000
v -0.054541 1.200000 0.600000
v -0.054544 1.147204 -0.115002
v -0.054541 0.600000 0.612093
v -0.054541 0.600000 -0.480374
v -0.054541 0.600000 -1.290187
v -0.054541 0.600000 0.065860
v -0.192208 1.076023 1.700000
v -0.192208 0.723977 1.700000
v -0.192208 1.121764 1.500000
v -0.192208 0.678236 1.500000
v -0.192208 1.021898 1.600000
v -0.192208 0.778102 1.600000
v -0.192208 1.084653 1.730000
v -0.192208 0.715347 1.730000
v 0.430000 1.200000 1.300000
v 0.430000 0.800000 -1.700000
v 0.430000 0.600000 1.300000
v 0.430000 0.600000 -2.100000
v 0.430000 1.147207 -0.115000
v 0.430000 1.200000 0.600000
v 0.430000 0.994000 -1.100000
v 0.430000 0.654000 -2.100000
v 0.310000 1.200000 1.300000
v 0.310000 1.200000 0.600000
v 0.310000 1.147207 -0.115000
v 0.310000 0.654000 -2.100000
v 0.310000 0.800000 -1.700000
v 0.310000 0.994000 -1.100000
v 0.310000 0.600000 -2.100000
v 0.310000 0.600000 1.300000
v 2.030000 0.901975 -0.328331
v 2.030000 0.890430 -0.598331
v 2.030000 0.884658 -0.328331
v 2.030000 0.884658 -0.634331
v 2.030000 0.900452 -0.455681
v 2.030000 0.901975 -0.391331
v 2.030000 0.896030 -0.544331
v 2.030000 0.886216 -0.634331
v 1.302000 0.967451 -0.797161
v 1.302000 1.077661 -0.300671
v 1.302000 0.827897 -1.099590
v 1.302000 0.722871 -1.301211
v 1.302000 0.684026 -1.301211
v 1.302000 1.115637 0.412559
v 1.302000 0.684026 0.412559
v 1.302000 1.115637 0.059724
v 0.310000 0.600000 0.612093
v 0.430000 0.600000 0.612093
v 2.030000 0.884658 -0.390243
v 1.302000 0.684026 0.065820
v 0.310000 0.600000 -0.480374
v 0.430000 0.600000 -0.480374
v 2.030000 0.884658 -0.488565
v 1.302000 0.684026 -0.484838
v 0.310000 0.600000 -1.290187
v 0.430000 0.600000 -1.290187
v 2.030000 0.884658 -0.561448
v 1.302000 0.684026 -0.893024
v 0.310000 0.600000 0.065860
v 0.430000 0.600000 0.065860
v 2.030000 0.884658 -0.439404
v 1.302000 0.684026 -0.209509
v 0.298633 1.023216 1.700000
v 0.298633 0.776784 1.700000
v 0.264619 1.076023 1.700000
v 0.156748 1.023216 1.700000
v 0.264619 0.723977 1.700000
v 0.156748 0.776784 1.700000
v 0.298633 0.744765 1.500000
v 0.298633 1.055235 1.500000
v 0.156748 0.744765 1.500000
v 0.264619 0.678236 1.500000
v 0.264619 1.121764 1.500000
v 0.156748 1.055235 1.500000
v 0.298633 0.814671 1.600000
v 0.156748 0.814671 1.600000
v 0.264619 1.021898 1.600000
v 0.298633 0.985329 1.600000
v 0.264619 0.778102 1.600000
v 0.156748 0.985329 1.600000
v 0.298633 1.029257 1.730000
v 0.298633 0.770743 1.730000
v 0.264619 1.084653 1.730000
v 0.156748 1.029257 1.730000
v 0.264619 0.715347 1.730000
v 0.156748 0.770743 1.730000
v 0.054541 1.200000 1.300000
v 0.054541 0.800000 -1.700000
v 0.054541 0.600000 -2.100000
v 0.054541 0.600000 1.300000
v 0.054541 0.654000 -2.100000
v 0.054541 1.200000 0.600000
v 0.054544 1.147204 -0.115002
v 0.054541 0.600000 0.612093
v 0.054541 0.600000 -0.480374
v 0.054541 0.600000 -1.290187
v 0.054541 0.600000 0.065860
v 0.192208 1.076023 1.700000
v 0.192208 0.723977 1.700000
v 0.192208 1.121764 1.500000
v 0.192208 0.678236 1.500000
v 0.192208 1.021898 1.600000
v 0.192208 0.778102 1.600000
v 0.192208 1.084653 1.730000
v 0.192208 0.715347 1.730000
vn -0.0000 -0.0000 1.0000
vn -0.0000 0.9515 -0.3077
vn -0.0000 0.9881 -0.1537
vn -0.0000 1.0000 -0.0000
vn -0.0000 -0.9394 0.3429
vn -0.0000 0.9973 -0.0736
vn 0.7948 -0.5337 -0.2889
vn -0.0000 -1.0000 -0.0000
vn -0.0000 -0.0000 -1.0000
vn -0.2265 0.9728 -0.0485
vn -0.1322 0.9859 -0.1022
vn 0.6755 -0.0000 0.7374
vn -0.7133 -0.0000 0.7009
vn 0.2657 0.9641 -0.0000
vn -0.2213 0.9698 -0.1022
vn 0.2188 -0.8654 0.4508
vn -0.2816 0.9595 -0.0000
vn -0.0963 0.9954 -0.0000
vn 0.2333 -0.9135 0.3334
vn -0.0508 0.9960 -0.0735
vn 0.0959 0.9954 -0.0000
vn -0.1706 0.8947 -0.4128
vn -0.0317 0.9757 -0.2166
vn 1.0000 -0.0000 -0.0000
vn -1.0000 -0.0000 -0.0000
vn -0.8427 0.5174 -0.1488
vn -0.8357 -0.5383 -0.1084
vn -0.0000 0.8794 -0.4760
vn -0.7090 -0.6595 -0.2499
vn -0.8068 0.5197 -0.2813
vn -0.8323 0.4255 0.3553
vn -0.0000 -0.8101 0.5863
vn 0.7871 -0.0000 0.6169
vn -0.0000 0.9313 0.3643
vn -0.8358 -0.0000 0.5490
vn 0.6920 -0.3688 0.6206
vn -0.8106 0.4144 0.4139
vn -0.6611 -0.6149 0.4299
vn -0.0000 0.7076 0.7066
vn 0.7987 -0.4257 0.4252
vn 0.8323 -0.5328 -0.1532
vn -0.0000 0.9610 -0.2764
vn 0.8250 0.5540 -0.1116
vn -0.0000 -0.9610 -0.2764
vn -0.0000 -0.7076 0.7066
vn 0.6455 0.6259 0.4376
vn -0.0000 -0.9313 0.3643
vn -0.0000 0.8101 0.5863
vn 0.6942 0.6731 -0.2550
vn -0.0000 -0.8794 -0.4760
vn -0.6942 -0.6731 -0.2550
vn 0.1686 0.9623 -0.2136
vn 0.2060 0.8885 -0.4100
vn -0.6755 -0.0000 0.7374
vn 0.7133 -0.0000 0.7009
vn -0.2657 0.9641 -0.0000
vn 0.2213 0.9698 -0.1022
vn -0.2188 -0.8654 0.4508
vn 0.2816 0.9595 -0.0000
vn 0.0963 0.9954 -0.0000
vn -0.2333 -0.9135 0.3334
vn 0.0508 0.9960 -0.0735
vn -0.0959 0.9954 -0.0000
vn 0.1785 0.9362 -0.3027
vn 0.0832 0.9847 -0.1532
vn 0.8357 0.5383 -0.1084
vn 0.8357 -0.5383 -0.1084
vn 0.7090 -0.6595 -0.2499
vn 0.7090 0.6595 -0.2499
vn -0.7871 -0.0000 0.6169
vn 0.8358 -0.0000 0.5490
vn 0.8106 0.4144 0.4139
vn 0.8105 -0.4144 0.4139
vn -0.7987 -0.4257 0.4252
vn -0.8250 -0.5540 -0.1116
vn -0.8250 0.5540 -0.1116
vn -0.7987 0.4257 0.4252
vn -0.6942 0.6731 -0.2550
vn 0.6942 -0.6731 -0.2550
vn -0.1686 0.9623 -0.2136
vn -0.2060 0.8885 -0.4100
vn -0.2318 0.9725 -0.0230
vn -0.0053 -0.9932 0.1163
vn 0.2783 -0.8519 0.4437
vn -0.0569 0.9929 -0.1046
vn -0.1785 0.9362 -0.3027
vn -0.0832 0.9847 -0.1532
vn -0.8357 0.5383 -0.1084
vn -0.8427 -0.5174 -0.1488
vn -0.8068 -0.5197 -0.2813
vn -0.7090 0.6595 -0.2499
vn -0.8323 -0.4255 0.3553
vn -0.6611 0.6149 0.4299
vn -0.8105 -0.4144 0.4139
vn 0.6455 -0.6259 0.4376
vn 0.8250 -0.5540 -0.1116
vn 0.8323 0.5328 -0.1532
vn 0.7987 0.4257 0.4252
vn 0.6920 0.3688 0.6206
vn 0.7948 0.5337 -0.2889
vn -0.7948 -0.5337 -0.2889
vn 0.2265 0.9728 -0.0485
vn 0.1322 0.9859 -0.1022
vn 0.2318 0.9725 -0.0230
vn 0.0053 -0.9932 0.1163
vn -0.2783 -0.8519 0.4437
vn 0.0569 0.9929 -0.1046
vn 0.1706 0.8947 -0.4128
vn 0.0317 0.9757 -0.2166
vn 0.8427 0.5174 -0.1488
vn 0.8427 -0.5174 -0.1488
vn 0.8068 -0.5197 -0.2813
vn 0.8068 0.5197 -0.2813
vn 0.8323 0.4255 0.3553
vn 0.8323 -0.4255 0.3553
vn -0.6920 -0.3688 0.6206
vn 0.6611 0.6149 0.4299
vn 0.6611 -0.6149 0.4299
vn -0.6455 -0.6259 0.4376
vn -0.8323 -0.5328 -0.1532
vn -0.8323 0.5328 -0.1532
vn -0.6455 0.6259 0.4376
vn -0.6920 0.3688 0.6206
vn -0.7948 0.5337 -0.2889
vt 0.898760 0.839366
vt 0.884616 0.862074
vt 0.887881 0.837897
vt 0.355348 0.462606
vt 0.446655 0.550732
vt 0.426601 0.564620
vt 0.240152 0.296750
vt 0.375401 0.448718
vt 0.076468 0.060126
vt 0.177215 0.163041
vt 0.157162 0.176928
vt 1.000000 0.432477
vt 0.914753 0.414475
vt 0.926419 0.393058
vt 0.260206 0.282862
vt 0.182972 0.650852
vt 0.203302 0.651120
vt 0.203302 0.661856
vt 0.808310 0.089130
vt 0.860228 0.228408
vt 0.808310 0.228516
vt 0.797225 0.525309
vt 0.772832 0.689573
vt 0.772832 0.525337
vt 0.963500 0.499488
vt 0.884616 0.469803
vt 0.889919 0.460069
vt 0.302897 0.253298
vt 0.229021 0.127164
vt 0.312011 0.246987
vt 0.139213 0.016674
vt 0.219906 0.133476
vt 0.335812 0.576168
vt 0.324833 0.628103
vt 0.324833 0.576168
vt 0.116580 0.429328
vt 0.024964 0.556014
vt 0.014697 0.541179
vt 0.175000 0.513251
vt 0.031249 0.565080
vt 0.897724 0.660339
vt 0.884930 0.509265
vt 0.905550 0.661395
vt 0.017083 0.742359
vt 0.061392 0.890362
vt 0.057871 0.890362
vt 0.595299 0.443799
vt 0.446655 0.388659
vt 0.446655 0.373878
vt 0.007262 0.530427
vt 0.074627 0.368821
vt 0.904001 0.178915
vt 0.891087 0.003517
vt 0.941624 0.198893
vt -0.000000 0.519915
vt 0.033953 0.309947
vt 0.595299 0.526582
vt -0.000000 0.565080
vt 0.104830 0.742359
vt 0.211364 0.565080
vt 0.772832 0.139540
vt 0.595299 0.179017
vt 0.772832 0.000028
vt 0.595299 0.249338
vt 0.446655 0.326600
vt 0.797225 0.000000
vt 0.860228 0.339088
vt 0.808310 0.339195
vt 0.808310 0.449875
vt 0.860228 0.613855
vt 0.808310 0.613962
vt 0.772832 0.361101
vt 0.595299 0.305177
vt 0.772832 0.250320
vt 0.595299 0.361016
vt 0.446655 0.349126
vt 0.797225 0.250293
vt 0.860228 0.777942
vt 0.808310 0.778049
vt 0.446655 0.359097
vt 0.797225 0.361073
vt 0.383618 0.565080
vt 0.384792 0.572398
vt 0.383618 0.579897
vt 0.381306 0.576053
vt 0.383618 0.572575
vt 0.383618 0.587386
vt 0.797225 0.139513
vt 0.446655 0.339156
vt 0.860228 0.449768
vt 0.380407 0.594068
vt 0.383618 0.597376
vt 0.380098 0.607145
vt 0.383618 0.607366
vt 0.380098 0.619947
vt 0.383618 0.619947
vt 0.235818 0.643418
vt 0.215497 0.601020
vt 0.235818 0.608723
vt 0.215703 0.590284
vt 0.209401 0.599792
vt 0.209606 0.588530
vt 0.215703 0.661856
vt 0.209401 0.652348
vt 0.215497 0.651120
vt 0.350658 0.592335
vt 0.365358 0.571381
vt 0.365377 0.592429
vt 0.182972 0.643418
vt 0.203302 0.601020
vt 0.236024 0.650852
vt 0.236024 0.601288
vt 0.096522 0.046239
vt 0.076924 0.012967
vt 0.081893 0.008380
vt 0.860228 0.089022
vt 0.857173 0.046101
vt 0.884616 0.088972
vt 0.121981 0.687061
vt 0.162641 0.594511
vt 0.162641 0.657630
vt 0.093993 -0.000000
vt 0.295988 0.687061
vt 0.256139 0.594511
vt 0.295988 0.565080
vt 0.828336 0.046161
vt 0.835886 0.047249
vt 0.256345 0.580985
vt 0.256139 0.657630
vt 0.380098 0.565080
vt 0.365377 0.585383
vt 0.365377 0.565080
vt 0.162641 0.671155
vt 0.324833 0.576342
vt 0.317918 0.640160
vt 0.317918 0.565080
vt 0.303197 0.565080
vt 0.295988 0.628898
vt 0.295988 0.576342
vt 0.209401 0.652348
vt 0.209401 0.663610
vt 0.350639 0.571286
vt 0.365377 0.565175
vt 0.203302 0.590284
vt 0.209401 0.599792
vt 0.835650 0.005966
vt 0.850411 0.000000
vt 0.850367 0.005936
vt 0.850088 0.025300
vt 0.850602 0.047219
vt 0.182972 0.601288
vt 0.182972 0.608723
vt 0.343335 0.573226
vt 0.335812 0.608458
vt 0.335812 0.565080
vt 0.797225 0.339218
vt 0.797225 0.449898
vt 0.797225 0.613985
vt 0.797225 0.778072
vt 0.797225 0.228539
vt 0.335812 0.565080
vt 0.324833 0.565080
vt 0.988334 0.453895
vt 0.797225 0.089153
vt 0.835371 0.025330
vt 0.121981 0.565080
vt 0.383935 0.565080
vt 0.382445 0.565080
vt 0.121981 0.565080
vt 0.256345 0.671155
vt 0.324833 0.628898
vt 0.303197 0.640160
vt 0.162641 0.580985
vt 0.895496 0.863543
vt 0.797225 0.689545
vt 0.958197 0.509223
vt 0.148328 0.010362
vt 0.335812 0.628103
vt 0.884616 0.509223
vt 0.884617 -0.000000
vt 0.209606 0.663610
vt 0.380098 0.585383
vt 0.350658 0.565080
vt 0.209401 0.588530
vt 0.835695 0.000030
vt 0.350639 0.604578
s 0
f 4/1/1 13/2/1 8/3/1
f 7/4/2 14/5/2 2/6/2
f 5/7/3 15/8/3 7/4/3
f 1/9/4 11/10/4 6/11/4
f 8/12/5 14/13/5 2/14/5
f 6/11/6 12/15/6 5/7/6
f 100/16/7 65/17/7 96/18/7
f 87/19/8 40/20/8 91/21/8
f 51/22/4 4/23/4 52/24/4
f 88/25/5 20/26/5 85/27/5
f 90/28/6 22/29/6 23/30/6
f 84/31/4 22/29/4 89/32/4
f 86/33/9 13/34/9 88/35/9
f 33/36/10 30/37/10 28/38/10
f 32/39/11 25/40/11 30/37/11
f 35/41/12 27/42/12 36/43/12
f 38/44/13 24/45/13 26/46/13
f 54/47/14 27/48/14 53/49/14
f 33/36/15 29/50/15 39/51/15
f 34/52/16 31/53/16 35/54/16
f 39/51/17 24/55/17 37/56/17
f 6/11/18 37/56/18 1/9/18
f 2/14/19 35/54/19 8/12/19
f 5/7/20 39/51/20 6/11/20
f 52/24/21 36/57/21 54/47/21
f 3/58/13 37/59/13 38/44/13
f 8/3/12 36/43/12 4/1/12
f 7/4/22 34/60/22 32/39/22
f 5/7/23 32/39/23 33/36/23
f 42/61/21 38/62/21 3/63/21
f 44/64/14 26/65/14 38/62/14
f 17/66/4 42/61/4 3/63/4
f 91/21/8 55/67/8 94/68/8
f 92/69/8 51/70/8 93/71/8
f 47/72/21 58/73/21 56/74/21
f 49/75/14 57/76/14 58/73/14
f 55/77/4 47/72/4 56/74/4
f 93/71/8 16/78/8 86/79/8
f 47/72/21 54/47/21 49/75/21
f 49/75/14 53/49/14 48/80/14
f 46/81/4 52/24/4 47/72/4
f 27/82/24 25/83/24 53/84/24
f 30/85/25 53/86/25 48/87/25
f 40/88/4 56/74/4 42/61/4
f 58/73/14 43/89/14 44/64/14
f 56/74/21 44/64/21 42/61/21
f 94/68/8 46/90/8 92/69/8
f 28/91/25 48/87/25 57/92/25
f 29/93/25 57/92/25 43/94/25
f 24/95/25 43/94/25 26/96/25
f 72/97/25 60/98/25 75/99/25
f 62/100/26 78/101/26 80/102/26
f 64/103/27 79/104/27 61/105/27
f 74/106/28 95/107/28 99/108/28
f 73/109/24 63/110/24 65/17/24
f 76/111/29 61/105/29 72/97/29
f 74/112/30 60/98/30 62/100/30
f 10/113/31 67/114/31 70/115/31
f 17/116/32 66/117/32 3/118/32
f 9/119/33 71/120/33 68/121/33
f 10/113/34 97/122/34 84/31/34
f 3/123/35 67/124/35 1/125/35
f 87/19/36 68/126/36 98/127/36
f 67/124/37 74/112/37 70/128/37
f 66/129/38 76/111/38 72/97/38
f 71/120/24 73/109/24 68/121/24
f 70/130/39 99/131/39 97/132/39
f 66/129/25 75/99/25 67/124/25
f 68/121/40 100/16/40 98/133/40
f 78/134/1 82/135/1 80/136/1
f 101/137/1 83/138/1 81/139/1
f 63/110/24 83/140/24 65/17/24
f 96/18/41 83/140/41 102/141/41
f 62/142/42 101/143/42 95/107/42
f 61/105/25 78/101/25 60/98/25
f 95/144/43 81/145/43 63/110/43
f 96/146/44 82/147/44 64/148/44
f 82/135/1 101/137/1 80/136/1
f 98/127/45 76/149/45 69/150/45
f 71/120/46 99/151/46 77/152/46
f 17/116/47 98/127/47 69/150/47
f 84/153/48 71/154/48 21/155/48
f 99/151/49 63/110/49 77/152/49
f 59/156/8 92/69/8 45/157/8
f 50/158/8 86/79/8 18/159/8
f 45/157/8 93/71/8 50/158/8
f 41/160/8 94/68/8 59/156/8
f 18/161/9 88/35/9 19/162/9
f 10/113/4 89/32/4 11/10/4
f 12/15/6 89/32/6 90/28/6
f 13/163/5 85/27/5 14/13/5
f 9/164/8 91/21/8 41/160/8
f 100/165/50 64/148/50 76/149/50
f 114/2/1 106/1/1 110/3/1
f 115/5/2 109/4/2 104/6/2
f 116/8/3 107/7/3 109/4/3
f 112/10/4 103/9/4 108/11/4
f 115/13/5 110/12/5 104/14/5
f 113/15/6 108/11/6 107/7/6
f 191/16/51 156/17/51 164/109/51
f 135/20/8 178/19/8 182/21/8
f 106/23/4 143/22/4 144/24/4
f 20/26/5 179/25/5 176/27/5
f 181/28/6 22/29/6 180/32/6
f 22/29/4 175/31/4 180/32/4
f 114/34/9 177/33/9 179/35/9
f 128/36/52 125/37/52 127/39/52
f 127/39/53 120/40/53 129/60/53
f 122/42/54 130/41/54 131/43/54
f 133/44/55 119/45/55 132/59/55
f 146/47/56 122/48/56 131/57/56
f 124/50/57 128/36/57 134/51/57
f 126/53/58 129/52/58 130/54/58
f 119/55/59 134/51/59 132/56/59
f 132/56/60 108/11/60 103/9/60
f 130/54/61 104/14/61 110/12/61
f 134/51/62 107/7/62 108/11/62
f 144/24/63 131/57/63 106/23/63
f 105/58/55 132/59/55 103/166/55
f 131/43/54 110/3/54 106/1/54
f 109/4/64 129/60/64 104/6/64
f 107/7/65 127/39/65 109/4/65
f 133/62/63 136/61/63 105/63/63
f 121/65/56 138/64/56 133/62/56
f 136/61/4 118/66/4 105/63/4
f 147/67/8 182/21/8 185/68/8
f 143/70/8 183/69/8 184/71/8
f 150/73/63 140/72/63 148/74/63
f 149/76/56 142/75/56 150/73/56
f 140/72/4 147/77/4 148/74/4
f 117/78/8 184/71/8 177/79/8
f 140/72/63 146/47/63 144/24/63
f 142/75/56 145/49/56 146/47/56
f 144/24/4 139/81/4 140/72/4
f 122/82/25 120/83/25 126/167/25
f 125/85/24 145/86/24 120/168/24
f 148/74/4 135/88/4 136/61/4
f 137/89/56 150/73/56 138/64/56
f 138/64/63 148/74/63 136/61/63
f 139/90/8 185/68/8 183/69/8
f 123/91/24 141/87/24 125/85/24
f 124/93/24 149/92/24 123/91/24
f 119/95/24 137/94/24 124/93/24
f 151/98/24 163/97/24 166/99/24
f 153/100/66 169/101/66 151/98/66
f 170/104/67 155/103/67 152/105/67
f 186/107/28 165/106/28 190/108/28
f 164/109/25 154/110/25 168/152/25
f 152/105/68 167/111/68 163/97/68
f 165/112/69 151/98/69 166/99/69
f 111/113/48 158/114/48 103/9/48
f 157/117/32 118/116/32 105/118/32
f 9/119/70 162/120/70 21/169/70
f 188/122/34 111/113/34 175/31/34
f 158/124/71 105/123/71 103/125/71
f 178/19/32 159/126/32 9/164/32
f 165/112/72 158/124/72 161/128/72
f 157/129/73 167/111/73 160/170/73
f 164/109/25 162/120/25 159/121/25
f 190/131/39 161/130/39 188/132/39
f 166/99/24 157/129/24 158/124/24
f 191/16/74 159/121/74 189/133/74
f 169/134/1 173/135/1 170/171/1
f 192/137/1 174/138/1 193/172/1
f 156/17/25 172/145/25 154/110/25
f 187/18/75 174/140/75 156/17/75
f 192/143/42 153/142/42 186/107/42
f 169/101/24 152/105/24 151/98/24
f 172/145/76 186/144/76 154/110/76
f 173/147/44 187/146/44 155/148/44
f 192/137/1 173/135/1 171/136/1
f 167/149/45 189/127/45 160/150/45
f 162/120/77 190/151/77 188/173/77
f 118/116/47 189/127/47 178/19/47
f 162/154/48 175/153/48 21/155/48
f 154/110/78 190/151/78 168/152/78
f 183/69/8 59/156/8 45/157/8
f 177/79/8 50/158/8 18/159/8
f 184/71/8 45/157/8 50/158/8
f 185/68/8 41/160/8 59/156/8
f 179/35/9 18/161/9 19/162/9
f 180/32/4 111/113/4 112/10/4
f 113/15/6 180/32/6 112/10/6
f 176/27/5 114/163/5 115/13/5
f 182/21/8 9/164/8 41/160/8
f 155/148/50 191/165/50 167/149/50
f 4/1/1 16/174/1 13/2/1
f 7/4/2 15/8/2 14/5/2
f 5/7/3 12/15/3 15/8/3
f 1/9/4 10/113/4 11/10/4
f 8/12/5 13/163/5 14/13/5
f 6/11/6 11/10/6 12/15/6
f 100/16/79 73/109/79 65/17/79
f 87/19/8 17/116/8 40/20/8
f 51/22/4 16/175/4 4/23/4
f 88/25/5 19/176/5 20/26/5
f 90/28/6 89/32/6 22/29/6
f 84/31/4 21/177/4 22/29/4
f 86/33/9 16/178/9 13/34/9
f 33/36/80 32/39/80 30/37/80
f 32/39/81 34/60/81 25/40/81
f 35/41/12 31/179/12 27/42/12
f 38/44/13 37/59/13 24/45/13
f 54/47/14 36/57/14 27/48/14
f 33/36/82 28/38/82 29/50/82
f 34/52/83 25/180/83 31/53/83
f 39/51/17 29/50/17 24/55/17
f 6/11/18 39/51/18 37/56/18
f 2/14/84 34/52/84 35/54/84
f 5/7/85 33/36/85 39/51/85
f 52/24/21 4/23/21 36/57/21
f 3/58/13 1/166/13 37/59/13
f 8/3/12 35/41/12 36/43/12
f 7/4/86 2/6/86 34/60/86
f 5/7/87 7/4/87 32/39/87
f 42/61/21 44/64/21 38/62/21
f 44/64/14 43/89/14 26/65/14
f 17/66/4 40/88/4 42/61/4
f 91/21/8 40/20/8 55/67/8
f 92/69/8 46/90/8 51/70/8
f 47/72/21 49/75/21 58/73/21
f 49/75/14 48/80/14 57/76/14
f 55/77/4 46/81/4 47/72/4
f 93/71/8 51/70/8 16/78/8
f 47/72/21 52/24/21 54/47/21
f 49/75/14 54/47/14 53/49/14
f 46/81/4 51/22/4 52/24/4
f 27/82/24 31/167/24 25/83/24
f 30/85/25 25/168/25 53/86/25
f 40/88/4 55/77/4 56/74/4
f 58/73/14 57/76/14 43/89/14
f 56/74/21 58/73/21 44/64/21
f 94/68/8 55/67/8 46/90/8
f 28/91/25 30/85/25 48/87/25
f 29/93/25 28/91/25 57/92/25
f 24/95/25 29/93/25 43/94/25
f 72/97/25 61/105/25 60/98/25
f 62/100/88 60/98/88 78/101/88
f 64/103/89 82/181/89 79/104/89
f 74/106/28 62/142/28 95/107/28
f 73/109/24 77/152/24 63/110/24
f 76/111/90 64/103/90 61/105/90
f 74/112/91 75/99/91 60/98/91
f 10/113/48 1/9/48 67/114/48
f 17/116/92 69/150/92 66/117/92
f 9/119/33 21/169/33 71/120/33
f 10/113/34 70/115/34 97/122/34
f 3/123/35 66/129/35 67/124/35
f 87/19/32 9/164/32 68/126/32
f 67/124/93 75/99/93 74/112/93
f 66/129/94 69/170/94 76/111/94
f 71/120/24 77/152/24 73/109/24
f 70/130/39 74/182/39 99/131/39
f 66/129/25 72/97/25 75/99/25
f 68/121/95 73/109/95 100/16/95
f 78/134/1 79/171/1 82/135/1
f 101/137/1 102/172/1 83/138/1
f 63/110/24 81/145/24 83/140/24
f 96/18/96 65/17/96 83/140/96
f 62/142/42 80/183/42 101/143/42
f 61/105/25 79/104/25 78/101/25
f 95/144/97 101/184/97 81/145/97
f 96/146/44 102/185/44 82/147/44
f 82/135/1 102/172/1 101/137/1
f 98/127/45 100/165/45 76/149/45
f 71/120/98 97/173/98 99/151/98
f 17/116/47 87/19/47 98/127/47
f 84/153/99 97/186/99 71/154/99
f 99/151/100 95/144/100 63/110/100
f 59/156/8 94/68/8 92/69/8
f 50/158/8 93/71/8 86/79/8
f 45/157/8 92/69/8 93/71/8
f 41/160/8 91/21/8 94/68/8
f 18/161/9 86/33/9 88/35/9
f 10/113/4 84/31/4 89/32/4
f 12/15/6 11/10/6 89/32/6
f 13/163/5 88/25/5 85/27/5
f 9/164/8 87/19/8 91/21/8
f 100/165/50 96/146/50 64/148/50
f 114/2/1 117/174/1 106/1/1
f 115/5/2 116/8/2 109/4/2
f 116/8/3 113/15/3 107/7/3
f 112/10/4 111/113/4 103/9/4
f 115/13/5 114/163/5 110/12/5
f 113/15/6 112/10/6 108/11/6
f 191/16/101 187/18/101 156/17/101
f 135/20/8 118/116/8 178/19/8
f 106/23/4 117/175/4 143/22/4
f 20/26/5 19/176/5 179/25/5
f 181/28/6 23/30/6 22/29/6
f 22/29/4 21/177/4 175/31/4
f 114/34/9 117/178/9 177/33/9
f 128/36/102 123/38/102 125/37/102
f 127/39/103 125/37/103 120/40/103
f 122/42/54 126/179/54 130/41/54
f 133/44/55 121/46/55 119/45/55
f 146/47/56 145/49/56 122/48/56
f 124/50/104 123/38/104 128/36/104
f 126/53/105 120/180/105 129/52/105
f 119/55/59 124/50/59 134/51/59
f 132/56/60 134/51/60 108/11/60
f 130/54/106 129/52/106 104/14/106
f 134/51/107 128/36/107 107/7/107
f 144/24/63 146/47/63 131/57/63
f 105/58/55 133/44/55 132/59/55
f 131/43/54 130/41/54 110/3/54
f 109/4/108 127/39/108 129/60/108
f 107/7/109 128/36/109 127/39/109
f 133/62/63 138/64/63 136/61/63
f 121/65/56 137/89/56 138/64/56
f 136/61/4 135/88/4 118/66/4
f 147/67/8 135/20/8 182/21/8
f 143/70/8 139/90/8 183/69/8
f 150/73/63 142/75/63 140/72/63
f 149/76/56 141/80/56 142/75/56
f 140/72/4 139/81/4 147/77/4
f 117/78/8 143/70/8 184/71/8
f 140/72/63 142/75/63 146/47/63
f 142/75/56 141/80/56 145/49/56
f 144/24/4 143/22/4 139/81/4
f 122/82/25 145/84/25 120/83/25
f 125/85/24 141/87/24 145/86/24
f 148/74/4 147/77/4 135/88/4
f 137/89/56 149/76/56 150/73/56
f 138/64/63 150/73/63 148/74/63
f 139/90/8 147/67/8 185/68/8
f 123/91/24 149/92/24 141/87/24
f 124/93/24 137/94/24 149/92/24
f 119/95/24 121/96/24 137/94/24
f 151/98/24 152/105/24 163/97/24
f 153/100/110 171/102/110 169/101/110
f 170/104/111 173/181/111 155/103/111
f 186/107/28 153/142/28 165/106/28
f 164/109/25 156/17/25 154/110/25
f 152/105/112 155/103/112 167/111/112
f 165/112/113 153/100/113 151/98/113
f 111/113/114 161/115/114 158/114/114
f 157/117/115 160/150/115 118/116/115
f 9/119/70 159/121/70 162/120/70
f 188/122/34 161/115/34 111/113/34
f 158/124/71 157/129/71 105/123/71
f 178/19/116 189/127/116 159/126/116
f 165/112/117 166/99/117 158/124/117
f 157/129/118 163/97/118 167/111/118
f 164/109/25 168/152/25 162/120/25
f 190/131/39 165/182/39 161/130/39
f 166/99/24 163/97/24 157/129/24
f 191/16/119 164/109/119 159/121/119
f 169/134/1 171/136/1 173/135/1
f 192/137/1 172/139/1 174/138/1
f 156/17/25 174/140/25 172/145/25
f 187/18/120 193/141/120 174/140/120
f 192/143/42 171/183/42 153/142/42
f 169/101/24 170/104/24 152/105/24
f 172/145/121 192/184/121 186/144/121
f 173/147/44 193/185/44 187/146/44
f 192/137/1 193/172/1 173/135/1
f 167/149/45 191/165/45 189/127/45
f 162/120/122 168/152/122 190/151/122
f 118/116/47 160/150/47 189/127/47
f 162/154/123 188/186/123 175/153/123
f 154/110/124 186/144/124 190/151/124
f 183/69/8 185/68/8 59/156/8
f 177/79/8 184/71/8 50/158/8
f 184/71/8 183/69/8 45/157/8
f 185/68/8 182/21/8 41/160/8
f 179/35/9 177/33/9 18/161/9
f 180/32/4 175/31/4 111/113/4
f 113/15/6 181/28/6 180/32/6
f 176/27/5 179/25/5 114/163/5
f 182/21/8 178/19/8 9/164/8
f 155/148/50 187/146/50 191/165/50
